<svg width="27" height="29" viewBox="0 0 27 29" fill="none" xmlns="http://www.w3.org/2000/svg">
<g clip-path="url(#clip0_50_212)">
<path d="M21.5529 24.0265H16.6632C14.3238 24.0265 12.4167 22.1113 12.4167 19.7535V17.7739C12.4167 15.4195 14.3201 13.5009 16.6632 13.5009H21.5529C23.8927 13.5009 25.7994 15.4161 25.7994 17.7739V19.7535C25.7994 22.1113 23.8927 24.0265 21.5529 24.0265ZM16.6632 15.8436C15.6066 15.8436 14.745 16.7103 14.745 17.7739V19.7535C14.745 20.8171 15.6062 21.6837 16.6632 21.6837H21.5529C22.6099 21.6837 23.4711 20.8171 23.4711 19.7535V17.7739C23.4711 16.7103 22.6099 15.8436 21.5529 15.8436H16.6632Z" fill="#4C2F1B"/>
<path d="M17.8334 27.2893H5.80832C4.52962 27.2893 3.4801 26.2369 3.4801 24.9465V8.67542C3.4801 7.38873 4.52553 6.33264 5.80832 6.33264H17.8334C19.1121 6.33264 20.1616 7.38461 20.1616 8.67542V24.9465C20.1616 26.2369 19.1158 27.2893 17.8334 27.2893Z" fill="#F4BE67"/>
<path d="M17.8333 28.2655H5.80827C3.9916 28.2655 2.5094 26.7782 2.5094 24.9464V8.67533C2.5094 6.8473 3.98751 5.3562 5.80827 5.3562H17.8333C19.65 5.3562 21.1318 6.84356 21.1318 8.67533V24.9464C21.1318 26.7782 19.6537 28.2655 17.8333 28.2655ZM5.80827 7.30889C5.05973 7.30889 4.45033 7.92211 4.45033 8.67533V24.9464C4.45033 25.6996 5.05973 26.3128 5.80827 26.3128H17.8333C18.5819 26.3128 19.1913 25.6996 19.1913 24.9464V8.67533C19.1913 7.92211 18.5819 7.30889 17.8333 7.30889H5.80827Z" fill="#4C2F1B"/>
<path d="M8.0952 21.8196H6.51924C6.47423 21.8196 6.43628 21.7818 6.43628 21.7323V14.0342C6.43628 13.989 6.47386 13.947 6.51924 13.947H8.0952C8.14022 13.947 8.18189 13.9848 8.18189 14.0342V21.7365C8.18151 21.7818 8.14394 21.8196 8.0952 21.8196ZM12.7178 21.8196H11.1418C11.0968 21.8196 11.0551 21.7818 11.0551 21.7323V14.0342C11.0551 13.989 11.0927 13.947 11.1418 13.947H12.7178C12.7628 13.947 12.8045 13.9848 12.8045 14.0342V21.7365C12.8045 21.7818 12.7665 21.8196 12.7178 21.8196ZM17.3404 21.8196H15.7644C15.7194 21.8196 15.6777 21.7818 15.6777 21.7323V14.0342C15.6777 13.989 15.7153 13.947 15.7644 13.947H17.3404C17.3854 13.947 17.4271 13.9848 17.4271 14.0342V21.7365C17.4271 21.7818 17.3895 21.8196 17.3404 21.8196Z" fill="#EAA35E"/>
<path d="M24.0053 8.80006C24.0053 6.94171 22.5082 5.43526 20.6618 5.43526C19.7027 5.43526 18.8526 5.7647 18.2432 6.41535C18.0136 6.16977 17.2424 3.13066 13.9778 3.89886C13.7144 3.95951 13.4439 3.93667 13.1916 3.99732C12.2738 2.50997 10.6376 1.51453 8.76847 1.51453C6.06784 1.51453 3.84863 3.58103 3.58523 6.23041C3.38247 6.14319 3.16036 6.09415 2.92709 6.09415C2.00183 6.09415 1.24585 6.85486 1.24585 7.7859V15.1662C1.24585 16.0972 2.00183 16.8579 2.92709 16.8579C3.85273 16.8579 4.60834 16.0972 4.60834 15.1662V12.1649H4.61578C4.66451 13.054 5.39818 13.7735 6.29702 13.7735C7.19587 13.7735 7.92544 13.0581 7.97826 12.1649H11.3482C11.5588 12.9331 12.2508 13.501 13.0823 13.501C13.8911 13.501 14.5719 12.9596 14.7974 12.218C15.3052 13.1831 16.3093 13.8458 17.4641 13.8458C18.6375 13.8458 19.6607 13.1569 20.157 12.1652H20.7701V12.1615C22.5648 12.1005 24.0053 10.6206 24.0053 8.80006Z" fill="white"/>
<path d="M2.92715 17.6376C1.57293 17.6376 0.470947 16.5287 0.470947 15.1661V7.7858C0.470947 6.42311 1.57293 5.31424 2.92715 5.31424H2.95356C3.59645 2.64988 5.96261 0.734619 8.76444 0.734619C10.6752 0.734619 12.4357 1.63534 13.5641 3.16837C13.6541 3.16089 13.7371 3.15677 13.7974 3.14179C15.8436 2.66111 17.4195 3.36155 18.4951 5.22739C19.1198 4.85639 19.8605 4.65985 20.6619 4.65985C22.9339 4.65985 24.7803 6.5182 24.7803 8.80408C24.7803 11.0181 23.0801 12.8162 20.8948 12.9371C20.8535 12.9446 20.8122 12.9483 20.7709 12.9483H20.6016C19.9022 13.9965 18.7395 14.6288 17.4646 14.6288C16.4753 14.6288 15.5463 14.2429 14.8543 13.5728C14.3878 14.0194 13.7635 14.2844 13.0827 14.2844C12.1388 14.2844 11.2813 13.7584 10.8333 12.9483H8.59925C8.24581 13.8906 7.3466 14.557 6.29745 14.557C5.97377 14.557 5.66535 14.4926 5.38335 14.3791V15.1702C5.38335 16.5287 4.281 17.6376 2.92715 17.6376ZM2.92715 6.87385C2.42713 6.87385 2.02458 7.28228 2.02458 7.78206V15.1623C2.02458 15.6658 2.43085 16.0705 2.92715 16.0705C3.42754 16.0705 3.83009 15.6617 3.83009 15.1623V12.161C3.83009 11.7294 4.17608 11.3812 4.60504 11.3812C5.01503 11.3812 5.36475 11.7069 5.38707 12.1195C5.41348 12.6076 5.81231 12.9899 6.29373 12.9899C6.77515 12.9899 7.17025 12.6076 7.20039 12.1195C7.22308 11.7069 7.56164 11.3812 7.97534 11.3812H11.3453C11.695 11.3812 11.9997 11.6159 12.0938 11.9566C12.2181 12.407 12.6202 12.7211 13.0793 12.7211C13.5269 12.7211 13.9183 12.4261 14.0533 11.9907C14.1475 11.6878 14.4109 11.4722 14.723 11.4456C15.0352 11.4157 15.3361 11.5781 15.479 11.8582C15.8704 12.6035 16.6301 13.0692 17.4575 13.0692C18.3039 13.0692 19.071 12.5885 19.4583 11.8162C19.59 11.5516 19.8571 11.385 20.1503 11.385H20.673C20.6957 11.3812 20.718 11.3812 20.7407 11.3812C22.1322 11.3359 23.2271 10.2042 23.2271 8.8037C23.2271 7.38074 22.076 6.22245 20.6619 6.22245C19.8981 6.22245 19.2552 6.4759 18.8076 6.95658C18.661 7.11531 18.4501 7.21415 18.2399 7.20254C18.0252 7.20254 17.8187 7.11194 17.6759 6.95284C17.5591 6.8278 17.4951 6.68779 17.3939 6.4759C16.8332 5.27231 16.0549 4.2166 14.1553 4.66284C13.9637 4.70814 13.7866 4.71975 13.6326 4.73098C13.531 4.73846 13.4369 4.74633 13.3729 4.7613C13.0496 4.84067 12.7073 4.70065 12.5306 4.41314C11.7143 3.08863 10.3077 2.30134 8.76555 2.30134C6.479 2.30134 4.58309 4.02717 4.35354 6.31342C4.32713 6.55938 4.18799 6.7825 3.97741 6.90754C3.76312 7.03258 3.50344 7.0513 3.27798 6.95284C3.16786 6.90005 3.04732 6.87385 2.92715 6.87385Z" fill="#4C2F1B"/>
<path d="M6.57947 23.557C6.57947 23.7626 6.68848 23.9524 6.86519 24.0553C7.04191 24.1579 7.25993 24.1579 7.43702 24.0553C7.61374 23.9527 7.72274 23.7629 7.72274 23.557C7.72274 23.3515 7.61374 23.1617 7.43702 23.0587C7.2603 22.9562 7.04228 22.9562 6.86519 23.0587C6.6881 23.1617 6.57947 23.3515 6.57947 23.557Z" fill="#F7D5A4"/>
<path d="M15.366 22.9215C15.366 23.1271 15.475 23.3169 15.6517 23.4198C15.8284 23.5224 16.0464 23.5224 16.2235 23.4198C16.4002 23.3172 16.5096 23.1271 16.5096 22.9215C16.5096 22.716 16.4006 22.5262 16.2235 22.4232C16.0468 22.3207 15.8288 22.3207 15.6517 22.4232C15.4746 22.5258 15.366 22.716 15.366 22.9215Z" fill="#F7D5A4"/>
<path d="M11.3601 23.557C11.3601 23.7626 11.4691 23.9524 11.6458 24.0553C11.8226 24.1579 12.0406 24.1579 12.2177 24.0553C12.3944 23.9527 12.5038 23.7629 12.5038 23.557C12.5038 23.3515 12.3947 23.1617 12.2177 23.0587C12.0409 22.9562 11.8229 22.9562 11.6458 23.0587C11.4687 23.1617 11.3601 23.3515 11.3601 23.557Z" fill="#F7D5A4"/>
<path d="M13.4398 18.3871C13.4398 18.5926 13.5488 18.7824 13.7259 18.8854C13.9026 18.988 14.1206 18.988 14.2974 18.8854C14.4745 18.7828 14.5835 18.5926 14.5835 18.3871C14.5835 18.1816 14.4745 17.9918 14.2974 17.8888C14.1206 17.7862 13.9026 17.7862 13.7259 17.8888C13.5488 17.9918 13.4398 18.1816 13.4398 18.3871Z" fill="#F7D5A4"/>
<path d="M8.44004 19.131C8.49994 19.2444 8.61527 19.3174 8.74288 19.3215C8.87049 19.326 8.99066 19.262 9.05837 19.1531C9.12608 19.0441 9.13092 18.9071 9.07102 18.7937C9.01149 18.6802 8.89579 18.6076 8.76818 18.6031C8.64057 18.5986 8.5204 18.6627 8.45269 18.7716C8.38498 18.8802 8.38052 19.0176 8.44004 19.131Z" fill="#F7D5A4"/>
<path d="M9.84678 15.8537C9.88882 15.9338 9.97067 15.9851 10.0607 15.9881C10.1504 15.9915 10.2356 15.9458 10.2832 15.8694C10.3308 15.7927 10.3342 15.6957 10.2921 15.616C10.2501 15.5359 10.1686 15.4846 10.0786 15.4816C9.98853 15.4786 9.90371 15.5239 9.85608 15.6006C9.80809 15.677 9.80474 15.7736 9.84678 15.8537Z" fill="#F7D5A4"/>
<path d="M13.5958 16.1137C13.6747 16.2631 13.8592 16.3204 14.0076 16.241C14.1564 16.1616 14.2126 15.9759 14.1341 15.8266C14.0552 15.6772 13.8707 15.6203 13.7223 15.6993C13.5735 15.779 13.5169 15.9643 13.5958 16.1137Z" fill="#F7D5A4"/>
<path d="M18.0495 17.0024C18.1005 17.0994 18.1991 17.1612 18.3077 17.1653C18.4164 17.169 18.519 17.1144 18.5771 17.0215C18.6348 16.9287 18.6388 16.8119 18.5879 16.7149C18.5369 16.6179 18.4387 16.5562 18.3297 16.5521C18.221 16.5483 18.1184 16.603 18.0607 16.6958C18.0027 16.7887 17.9986 16.9055 18.0495 17.0024Z" fill="#F7D5A4"/>
<path d="M5.3663 18.9098C5.44517 19.0592 5.62933 19.1161 5.77815 19.0371C5.92659 18.9577 5.98314 18.772 5.90427 18.6227C5.8254 18.4729 5.64086 18.4164 5.49242 18.4954C5.34398 18.5747 5.28743 18.7604 5.3663 18.9098Z" fill="#F7D5A4"/>
</g>
<defs>
<clipPath id="clip0_50_212">
<rect width="26" height="29" fill="white" transform="translate(0.235474)"/>
</clipPath>
</defs>
</svg>
