<svg width="26" height="25" viewBox="0 0 26 25" fill="none" xmlns="http://www.w3.org/2000/svg">
<path d="M5.37807 23.6073C4.53267 23.5749 3.73062 23.2248 3.13201 22.6269C2.5334 22.0291 2.18228 21.2275 2.14873 20.3821L2.11993 19.9049H23.9231L23.8943 20.3451C23.8698 21.1983 23.5216 22.0102 22.9203 22.6161C22.319 23.222 21.5098 23.5763 20.6567 23.6073H5.37807Z" fill="#FFDE8A"/>
<path d="M3.76131 19.9051C3.53495 19.9056 3.3107 19.8616 3.10137 19.7754C2.89203 19.6893 2.70171 19.5628 2.54127 19.4031C2.38083 19.2434 2.25341 19.0537 2.16629 18.8448C2.07917 18.6359 2.03405 18.4119 2.03351 18.1855V18.1238C2.03351 17.8971 2.07823 17.6726 2.16511 17.4632C2.25199 17.2538 2.37932 17.0636 2.53982 16.9035C2.70031 16.7434 2.89082 16.6165 3.10042 16.5301C3.31002 16.4437 3.5346 16.3996 3.76131 16.4001H13.4658L15.897 18.5928C15.9627 18.6517 16.0474 18.6853 16.1356 18.6874C16.2261 18.6839 16.3128 18.6506 16.3825 18.5928L18.8178 16.396H22.2734C22.5001 16.3954 22.7247 16.4396 22.9343 16.526C23.1439 16.6124 23.3344 16.7393 23.4949 16.8994C23.6554 17.0595 23.7828 17.2497 23.8696 17.4591C23.9565 17.6685 24.0012 17.893 24.0012 18.1197V18.1814C24.0012 18.4081 23.9565 18.6326 23.8696 18.842C23.7828 19.0514 23.6554 19.2416 23.4949 19.4017C23.3344 19.5618 23.1439 19.6887 22.9343 19.775C22.7247 19.8614 22.5001 19.9056 22.2734 19.9051H3.76131ZM3.76131 15.2647C3.30378 15.2647 2.86493 15.0832 2.54102 14.7601C2.21711 14.437 2.0346 13.9985 2.03351 13.541V13.4793C2.0346 13.0218 2.21711 12.5834 2.54102 12.2602C2.86493 11.9371 3.30378 11.7556 3.76131 11.7556H22.2734C22.731 11.7556 23.1698 11.9371 23.4937 12.2602C23.8176 12.5834 24.0002 13.0218 24.0012 13.4793V13.541C24.0002 13.9985 23.8176 14.437 23.4937 14.7601C23.1698 15.0832 22.731 15.2647 22.2734 15.2647H3.76131Z" fill="#C61E24"/>
<path d="M13.4699 16.3959H2.88507V15.2563H23.1497V16.3959H18.8261L16.148 18.8107L13.4699 16.3959Z" fill="#E5E04F"/>
<path d="M20.5375 15.0506C20.1883 15.051 19.8424 14.9818 19.5203 14.8468C19.1982 14.7119 18.9063 14.5141 18.6616 14.2649C18.4158 14.0152 18.1229 13.817 17.7997 13.6817C17.4766 13.5464 17.1298 13.4767 16.7795 13.4767C16.4292 13.4767 16.0824 13.5464 15.7593 13.6817C15.4362 13.817 15.1432 14.0152 14.8975 14.2649C14.6523 14.5146 14.3597 14.7127 14.0368 14.8476C13.7139 14.9826 13.3674 15.0516 13.0174 15.0506C12.6299 15.056 12.2466 14.97 11.8985 14.7997C11.6278 14.6527 11.3751 14.4746 11.1457 14.269C10.8999 14.0172 10.6062 13.8172 10.2819 13.6808C9.9576 13.5445 9.60924 13.4745 9.25742 13.475C8.90729 13.4727 8.56029 13.541 8.23724 13.6761C7.91418 13.8111 7.62172 14.01 7.37741 14.2608C7.13271 14.51 6.84079 14.708 6.5187 14.8432C6.19661 14.9784 5.85081 15.048 5.50151 15.048C5.15222 15.048 4.80642 14.9784 4.48433 14.8432C4.16224 14.708 3.87032 14.51 3.62562 14.2608C3.29148 13.9364 2.88558 13.6954 2.44084 13.5573C2.38857 13.5402 2.33488 13.5278 2.2804 13.5203L1.94307 13.4545V13.1089C1.92781 12.766 2.02614 12.4276 2.22281 12.1463C2.32613 12.0115 2.46053 11.9036 2.61454 11.832C2.76855 11.7604 2.93761 11.727 3.10728 11.7349H21.3644C21.5125 11.7349 21.6729 11.7349 21.8704 11.7349H22.9235C23.0937 11.7278 23.2631 11.7614 23.4176 11.8329C23.5722 11.9045 23.7074 12.0119 23.8121 12.1463C24.0056 12.4289 24.1023 12.7667 24.0877 13.1089V13.4545L23.7504 13.5203C23.707 13.5255 23.6642 13.5351 23.6228 13.5491C23.1684 13.6836 22.7533 13.9264 22.4134 14.2567C22.1688 14.5066 21.8771 14.7055 21.5551 14.8418C21.233 14.9781 20.8872 15.049 20.5375 15.0506Z" fill="#88A50F"/>
<path d="M3.74075 11.7514H3.11957C2.96725 11.7537 2.81638 11.7216 2.67819 11.6575C2.54 11.5934 2.41807 11.4989 2.32149 11.3811C2.22697 11.2634 2.15833 11.1271 2.12005 10.9811C2.08177 10.8351 2.07472 10.6826 2.09934 10.5337C2.56612 7.98279 3.91267 5.67634 5.90459 4.01583C7.89651 2.35533 10.4077 1.44592 13.0009 1.44592C15.5942 1.44592 18.1054 2.35533 20.0973 4.01583C22.0892 5.67634 23.4357 7.98279 23.9025 10.5337C23.9324 10.6797 23.931 10.8303 23.8984 10.9757C23.8658 11.121 23.8027 11.2578 23.7133 11.377C23.6172 11.4946 23.496 11.5892 23.3586 11.654C23.2213 11.7187 23.0712 11.752 22.9193 11.7514H3.74075Z" fill="#FFDE8A"/>
<mask id="path-6-outside-1_52_229" maskUnits="userSpaceOnUse" x="0.523132" y="-0.0147705" width="25" height="25" fill="black">
<rect fill="white" x="0.523132" y="-0.0147705" width="25" height="25"/>
<path d="M9.96496 5.9181C9.96819 5.80332 10.0052 5.69204 10.0713 5.59816C10.1374 5.50429 10.2297 5.43198 10.3367 5.39028C10.4437 5.34858 10.5606 5.33933 10.6728 5.3637C10.785 5.38806 10.8876 5.44496 10.9676 5.52727C11.0477 5.60958 11.1017 5.71366 11.123 5.82651C11.1442 5.93935 11.1317 6.05595 11.0871 6.16174C11.0424 6.26753 10.9676 6.35781 10.8719 6.4213C10.7762 6.48479 10.6639 6.51867 10.5491 6.51872C10.4713 6.51764 10.3945 6.50126 10.323 6.47049C10.2516 6.43972 10.1869 6.39518 10.1326 6.33941C10.0784 6.28364 10.0357 6.21772 10.0069 6.14543C9.97812 6.07315 9.96387 5.9959 9.96496 5.9181ZM15.4857 6.51872C15.604 6.52116 15.7203 6.48837 15.8199 6.42451C15.9196 6.36066 15.9979 6.26862 16.0451 6.1601C16.0922 6.05158 16.1061 5.93149 16.0848 5.8151C16.0635 5.69871 16.0081 5.59127 15.9256 5.50645C15.8431 5.42163 15.7373 5.36326 15.6215 5.33876C15.5057 5.31427 15.3853 5.32475 15.2755 5.36888C15.1658 5.41301 15.0716 5.48879 15.005 5.58659C14.9384 5.68439 14.9024 5.79978 14.9015 5.9181C14.8999 5.99604 14.9138 6.07353 14.9423 6.14606C14.9709 6.2186 15.0136 6.28473 15.068 6.34061C15.1223 6.3965 15.1872 6.44102 15.2589 6.4716C15.3307 6.50217 15.4077 6.51819 15.4857 6.51872ZM8.08083 8.57562C8.19798 8.57724 8.31297 8.54408 8.41128 8.48034C8.50958 8.4166 8.58678 8.32515 8.63311 8.21754C8.67943 8.10993 8.69281 7.991 8.67155 7.87579C8.65029 7.76057 8.59535 7.65425 8.51366 7.57026C8.43197 7.48628 8.32722 7.4284 8.21264 7.40395C8.09806 7.37949 7.97881 7.38957 7.86995 7.43289C7.7611 7.47621 7.66753 7.55084 7.60109 7.64733C7.53465 7.74383 7.49831 7.85786 7.49667 7.97501C7.49392 8.05363 7.50696 8.132 7.53504 8.20549C7.56311 8.27898 7.60563 8.3461 7.6601 8.40287C7.71456 8.45963 7.77986 8.5049 7.85213 8.53598C7.9244 8.56707 8.00216 8.58335 8.08083 8.58385V8.57562ZM17.954 8.57562C18.0711 8.57724 18.1861 8.54408 18.2844 8.48034C18.3827 8.4166 18.4599 8.32515 18.5062 8.21754C18.5526 8.10993 18.566 7.991 18.5447 7.87579C18.5234 7.76057 18.4685 7.65425 18.3868 7.57026C18.3051 7.48628 18.2004 7.4284 18.0858 7.40395C17.9712 7.37949 17.8519 7.38957 17.7431 7.43289C17.6342 7.47621 17.5407 7.55084 17.4742 7.64733C17.4078 7.74383 17.3714 7.85786 17.3698 7.97501C17.3671 8.05363 17.3801 8.132 17.4082 8.20549C17.4362 8.27898 17.4788 8.3461 17.5332 8.40287C17.5877 8.45963 17.653 8.5049 17.7253 8.53598C17.7975 8.56707 17.8753 8.58335 17.954 8.58385V8.57562ZM13.0174 8.57562C13.1345 8.57724 13.2495 8.54408 13.3478 8.48034C13.4462 8.4166 13.5233 8.32515 13.5697 8.21754C13.616 8.10993 13.6294 7.991 13.6081 7.87579C13.5869 7.76057 13.5319 7.65425 13.4502 7.57026C13.3685 7.48628 13.2638 7.4284 13.1492 7.40395C13.0346 7.37949 12.9154 7.38957 12.8065 7.43289C12.6977 7.47621 12.6041 7.55084 12.5377 7.64733C12.4712 7.74383 12.4349 7.85786 12.4332 7.97501C12.4305 8.05363 12.4435 8.132 12.4716 8.20549C12.4997 8.27898 12.5422 8.3461 12.5967 8.40287C12.6511 8.45963 12.7164 8.5049 12.7887 8.53598C12.861 8.56707 12.9387 8.58335 13.0174 8.58385V8.57562ZM23.557 15.203C23.5592 15.2207 23.5592 15.2387 23.557 15.2564V16.4124C23.8222 16.6099 24.0374 16.8669 24.1853 17.1627C24.3332 17.4585 24.4097 17.7848 24.4085 18.1155V18.1814C24.4093 18.6804 24.2346 19.1639 23.9149 19.5471C24.028 19.5871 24.126 19.6612 24.1952 19.7592C24.2645 19.8572 24.3016 19.9743 24.3016 20.0943C24.3016 22.2458 22.6561 23.9942 20.6526 23.9942H5.37806C3.36641 23.9942 1.72911 22.2458 1.72911 20.0943C1.72906 19.9743 1.76622 19.8572 1.83548 19.7592C1.90473 19.6612 2.00268 19.5871 2.11581 19.5471C1.79611 19.1639 1.62136 18.6804 1.62215 18.1814V18.1155C1.62103 17.7848 1.69748 17.4585 1.84537 17.1627C1.99327 16.8669 2.20848 16.6099 2.47371 16.4124V15.2564C2.47152 15.2387 2.47152 15.2207 2.47371 15.203C2.28636 15.0513 2.12755 14.8674 2.00474 14.6599C1.84979 14.4258 1.74864 14.1603 1.70854 13.8824C1.60008 13.6427 1.53863 13.3843 1.52754 13.1214C1.4969 12.6793 1.62691 12.2411 1.89367 11.8872C1.94691 11.8178 2.0061 11.7531 2.07056 11.6939C2.04999 11.6939 2.03353 11.6527 2.01297 11.6322C1.87692 11.4698 1.77836 11.2795 1.72432 11.0747C1.67028 10.8699 1.66208 10.6557 1.70032 10.4474C2.17689 7.79386 3.57107 5.39228 5.63907 3.6626C7.70708 1.93293 10.3173 0.985229 13.0133 0.985229C15.7093 0.985229 18.3195 1.93293 20.3875 3.6626C22.4555 5.39228 23.8497 7.79386 24.3263 10.4474C24.3645 10.6557 24.3563 10.8699 24.3023 11.0747C24.2482 11.2795 24.1497 11.4698 24.0136 11.6322C23.993 11.6527 23.9766 11.6774 23.956 11.6939C24.0205 11.7531 24.0797 11.8178 24.1329 11.8872C24.3997 12.2411 24.5297 12.6793 24.499 13.1214C24.4879 13.3843 24.4265 13.6427 24.318 13.8824C24.2779 14.1603 24.1768 14.4258 24.0218 14.6599C23.9003 14.867 23.7429 15.0509 23.557 15.203ZM2.64649 11.118C2.7029 11.1892 2.77485 11.2466 2.85684 11.2859C2.93883 11.3251 3.0287 11.345 3.11958 11.3442H22.9152C23.0061 11.345 23.096 11.3251 23.178 11.2859C23.26 11.2466 23.3319 11.1892 23.3883 11.118C23.4461 11.0469 23.4879 10.9641 23.5106 10.8753C23.5333 10.7865 23.5365 10.6939 23.52 10.6037C23.0768 8.14086 21.7822 5.91207 19.8624 4.3069C17.9426 2.70174 15.5198 1.8223 13.0174 1.8223C10.515 1.8223 8.09216 2.70174 6.17238 4.3069C4.25261 5.91207 2.95801 8.14086 2.51485 10.6037C2.49829 10.6939 2.50149 10.7865 2.52422 10.8753C2.54695 10.9641 2.58866 11.0469 2.64649 11.118ZM23.4747 20.337H2.5601C2.58546 21.0778 2.89001 21.7817 3.41265 22.3074C3.93529 22.8331 4.63737 23.1417 5.37806 23.1714H20.6567C21.3974 23.1417 22.0995 22.8331 22.6222 22.3074C23.1448 21.7817 23.4493 21.0778 23.4747 20.337ZM22.2735 16.8032H18.9824L16.6622 18.9013C16.5204 19.0285 16.3365 19.0988 16.146 19.0988C15.9554 19.0988 15.7715 19.0285 15.6297 18.9013L13.3054 16.8032H3.76133C3.41291 16.8032 3.0787 16.9414 2.83194 17.1874C2.58518 17.4333 2.446 17.7671 2.44492 18.1155V18.1814C2.446 18.5298 2.58518 18.8636 2.83194 19.1096C3.0787 19.3555 3.41291 19.4937 3.76133 19.4937H22.2735C22.6219 19.4937 22.9561 19.3555 23.2029 19.1096C23.4496 18.8636 23.5888 18.5298 23.5899 18.1814V18.1155C23.5888 17.7671 23.4496 17.4333 23.2029 17.1874C22.9561 16.9414 22.6219 16.8032 22.2735 16.8032ZM3.29647 15.6678V15.9805H13.6262L14.5395 16.8032L16.148 18.2595L17.7565 16.8032L18.6698 15.9805H22.7383V15.6678H3.29647ZM11.2073 14.8451C11.088 14.7628 10.977 14.6641 10.87 14.5777C10.6621 14.3591 10.412 14.1851 10.1347 14.0662C9.85752 13.9472 9.55902 13.8859 9.25738 13.8859C8.95574 13.8859 8.65724 13.9472 8.38002 14.0662C8.10281 14.1851 7.85266 14.3591 7.64477 14.5777C7.53781 14.6641 7.42674 14.7628 7.30744 14.8451H11.2073ZM18.7274 14.8451C18.6081 14.7628 18.497 14.6641 18.39 14.5777C18.1821 14.3591 17.932 14.1851 17.6548 14.0662C17.3776 13.9472 17.0791 13.8859 16.7774 13.8859C16.4758 13.8859 16.1773 13.9472 15.9001 14.0662C15.6228 14.1851 15.3727 14.3591 15.1648 14.5777C15.0578 14.6641 14.9468 14.7628 14.8275 14.8451H18.7274ZM23.4212 14.0593C23.1523 14.1982 22.9033 14.3725 22.6807 14.5777C22.5738 14.6641 22.4627 14.7587 22.3475 14.841C22.5796 14.8171 22.8012 14.7322 22.9898 14.5949C23.1784 14.4576 23.3272 14.2728 23.4212 14.0593ZM3.67494 14.841C3.55976 14.7587 3.44868 14.6641 3.34173 14.5777C3.1192 14.3725 2.87015 14.1982 2.60124 14.0593C2.69624 14.2745 2.847 14.4605 3.03793 14.5979C3.22887 14.7353 3.45305 14.8192 3.68728 14.841H3.67494ZM23.6763 13.1173C23.6876 12.8631 23.62 12.6117 23.4829 12.3973C23.4141 12.3158 23.3264 12.2522 23.2275 12.2121C23.1286 12.1719 23.0214 12.1565 22.9152 12.167H3.11958C3.01337 12.1565 2.90619 12.1719 2.80729 12.2121C2.70839 12.2522 2.62073 12.3158 2.55187 12.3973C2.41476 12.6117 2.34723 12.8631 2.35853 13.1173C2.42435 13.1173 2.48605 13.1461 2.54365 13.1666C3.04559 13.3168 3.50505 13.5831 3.88475 13.9441C4.0933 14.1623 4.3439 14.3359 4.62142 14.4546C4.89893 14.5732 5.19761 14.6343 5.49942 14.6343C5.80122 14.6343 6.0999 14.5732 6.37742 14.4546C6.65493 14.3359 6.90553 14.1623 7.11409 13.9441C7.68474 13.3799 8.45487 13.0634 9.25738 13.0634C10.0599 13.0634 10.83 13.3799 11.4007 13.9441C11.6077 14.1313 11.8354 14.2942 12.0795 14.4296C12.3706 14.5736 12.6927 14.6442 13.0174 14.6353C13.3197 14.6359 13.6189 14.5749 13.8969 14.4561C14.1749 14.3373 14.4257 14.1631 14.6341 13.9441C15.2048 13.3799 15.9749 13.0634 16.7774 13.0634C17.5799 13.0634 18.3501 13.3799 18.9207 13.9441C19.1293 14.1623 19.3799 14.3359 19.6574 14.4546C19.9349 14.5732 20.2336 14.6343 20.5354 14.6343C20.8372 14.6343 21.1359 14.5732 21.4134 14.4546C21.6909 14.3359 21.9415 14.1623 22.1501 13.9441C22.5297 13.5831 22.9892 13.3168 23.4912 13.1666C23.5487 13.1461 23.6105 13.1337 23.6763 13.1173Z"/>
</mask>
<path d="M9.96496 5.9181C9.96819 5.80332 10.0052 5.69204 10.0713 5.59816C10.1374 5.50429 10.2297 5.43198 10.3367 5.39028C10.4437 5.34858 10.5606 5.33933 10.6728 5.3637C10.785 5.38806 10.8876 5.44496 10.9676 5.52727C11.0477 5.60958 11.1017 5.71366 11.123 5.82651C11.1442 5.93935 11.1317 6.05595 11.0871 6.16174C11.0424 6.26753 10.9676 6.35781 10.8719 6.4213C10.7762 6.48479 10.6639 6.51867 10.5491 6.51872C10.4713 6.51764 10.3945 6.50126 10.323 6.47049C10.2516 6.43972 10.1869 6.39518 10.1326 6.33941C10.0784 6.28364 10.0357 6.21772 10.0069 6.14543C9.97812 6.07315 9.96387 5.9959 9.96496 5.9181ZM15.4857 6.51872C15.604 6.52116 15.7203 6.48837 15.8199 6.42451C15.9196 6.36066 15.9979 6.26862 16.0451 6.1601C16.0922 6.05158 16.1061 5.93149 16.0848 5.8151C16.0635 5.69871 16.0081 5.59127 15.9256 5.50645C15.8431 5.42163 15.7373 5.36326 15.6215 5.33876C15.5057 5.31427 15.3853 5.32475 15.2755 5.36888C15.1658 5.41301 15.0716 5.48879 15.005 5.58659C14.9384 5.68439 14.9024 5.79978 14.9015 5.9181C14.8999 5.99604 14.9138 6.07353 14.9423 6.14606C14.9709 6.2186 15.0136 6.28473 15.068 6.34061C15.1223 6.3965 15.1872 6.44102 15.2589 6.4716C15.3307 6.50217 15.4077 6.51819 15.4857 6.51872ZM8.08083 8.57562C8.19798 8.57724 8.31297 8.54408 8.41128 8.48034C8.50958 8.4166 8.58678 8.32515 8.63311 8.21754C8.67943 8.10993 8.69281 7.991 8.67155 7.87579C8.65029 7.76057 8.59535 7.65425 8.51366 7.57026C8.43197 7.48628 8.32722 7.4284 8.21264 7.40395C8.09806 7.37949 7.97881 7.38957 7.86995 7.43289C7.7611 7.47621 7.66753 7.55084 7.60109 7.64733C7.53465 7.74383 7.49831 7.85786 7.49667 7.97501C7.49392 8.05363 7.50696 8.132 7.53504 8.20549C7.56311 8.27898 7.60563 8.3461 7.6601 8.40287C7.71456 8.45963 7.77986 8.5049 7.85213 8.53598C7.9244 8.56707 8.00216 8.58335 8.08083 8.58385V8.57562ZM17.954 8.57562C18.0711 8.57724 18.1861 8.54408 18.2844 8.48034C18.3827 8.4166 18.4599 8.32515 18.5062 8.21754C18.5526 8.10993 18.566 7.991 18.5447 7.87579C18.5234 7.76057 18.4685 7.65425 18.3868 7.57026C18.3051 7.48628 18.2004 7.4284 18.0858 7.40395C17.9712 7.37949 17.8519 7.38957 17.7431 7.43289C17.6342 7.47621 17.5407 7.55084 17.4742 7.64733C17.4078 7.74383 17.3714 7.85786 17.3698 7.97501C17.3671 8.05363 17.3801 8.132 17.4082 8.20549C17.4362 8.27898 17.4788 8.3461 17.5332 8.40287C17.5877 8.45963 17.653 8.5049 17.7253 8.53598C17.7975 8.56707 17.8753 8.58335 17.954 8.58385V8.57562ZM13.0174 8.57562C13.1345 8.57724 13.2495 8.54408 13.3478 8.48034C13.4462 8.4166 13.5233 8.32515 13.5697 8.21754C13.616 8.10993 13.6294 7.991 13.6081 7.87579C13.5869 7.76057 13.5319 7.65425 13.4502 7.57026C13.3685 7.48628 13.2638 7.4284 13.1492 7.40395C13.0346 7.37949 12.9154 7.38957 12.8065 7.43289C12.6977 7.47621 12.6041 7.55084 12.5377 7.64733C12.4712 7.74383 12.4349 7.85786 12.4332 7.97501C12.4305 8.05363 12.4435 8.132 12.4716 8.20549C12.4997 8.27898 12.5422 8.3461 12.5967 8.40287C12.6511 8.45963 12.7164 8.5049 12.7887 8.53598C12.861 8.56707 12.9387 8.58335 13.0174 8.58385V8.57562ZM23.557 15.203C23.5592 15.2207 23.5592 15.2387 23.557 15.2564V16.4124C23.8222 16.6099 24.0374 16.8669 24.1853 17.1627C24.3332 17.4585 24.4097 17.7848 24.4085 18.1155V18.1814C24.4093 18.6804 24.2346 19.1639 23.9149 19.5471C24.028 19.5871 24.126 19.6612 24.1952 19.7592C24.2645 19.8572 24.3016 19.9743 24.3016 20.0943C24.3016 22.2458 22.6561 23.9942 20.6526 23.9942H5.37806C3.36641 23.9942 1.72911 22.2458 1.72911 20.0943C1.72906 19.9743 1.76622 19.8572 1.83548 19.7592C1.90473 19.6612 2.00268 19.5871 2.11581 19.5471C1.79611 19.1639 1.62136 18.6804 1.62215 18.1814V18.1155C1.62103 17.7848 1.69748 17.4585 1.84537 17.1627C1.99327 16.8669 2.20848 16.6099 2.47371 16.4124V15.2564C2.47152 15.2387 2.47152 15.2207 2.47371 15.203C2.28636 15.0513 2.12755 14.8674 2.00474 14.6599C1.84979 14.4258 1.74864 14.1603 1.70854 13.8824C1.60008 13.6427 1.53863 13.3843 1.52754 13.1214C1.4969 12.6793 1.62691 12.2411 1.89367 11.8872C1.94691 11.8178 2.0061 11.7531 2.07056 11.6939C2.04999 11.6939 2.03353 11.6527 2.01297 11.6322C1.87692 11.4698 1.77836 11.2795 1.72432 11.0747C1.67028 10.8699 1.66208 10.6557 1.70032 10.4474C2.17689 7.79386 3.57107 5.39228 5.63907 3.6626C7.70708 1.93293 10.3173 0.985229 13.0133 0.985229C15.7093 0.985229 18.3195 1.93293 20.3875 3.6626C22.4555 5.39228 23.8497 7.79386 24.3263 10.4474C24.3645 10.6557 24.3563 10.8699 24.3023 11.0747C24.2482 11.2795 24.1497 11.4698 24.0136 11.6322C23.993 11.6527 23.9766 11.6774 23.956 11.6939C24.0205 11.7531 24.0797 11.8178 24.1329 11.8872C24.3997 12.2411 24.5297 12.6793 24.499 13.1214C24.4879 13.3843 24.4265 13.6427 24.318 13.8824C24.2779 14.1603 24.1768 14.4258 24.0218 14.6599C23.9003 14.867 23.7429 15.0509 23.557 15.203ZM2.64649 11.118C2.7029 11.1892 2.77485 11.2466 2.85684 11.2859C2.93883 11.3251 3.0287 11.345 3.11958 11.3442H22.9152C23.0061 11.345 23.096 11.3251 23.178 11.2859C23.26 11.2466 23.3319 11.1892 23.3883 11.118C23.4461 11.0469 23.4879 10.9641 23.5106 10.8753C23.5333 10.7865 23.5365 10.6939 23.52 10.6037C23.0768 8.14086 21.7822 5.91207 19.8624 4.3069C17.9426 2.70174 15.5198 1.8223 13.0174 1.8223C10.515 1.8223 8.09216 2.70174 6.17238 4.3069C4.25261 5.91207 2.95801 8.14086 2.51485 10.6037C2.49829 10.6939 2.50149 10.7865 2.52422 10.8753C2.54695 10.9641 2.58866 11.0469 2.64649 11.118ZM23.4747 20.337H2.5601C2.58546 21.0778 2.89001 21.7817 3.41265 22.3074C3.93529 22.8331 4.63737 23.1417 5.37806 23.1714H20.6567C21.3974 23.1417 22.0995 22.8331 22.6222 22.3074C23.1448 21.7817 23.4493 21.0778 23.4747 20.337ZM22.2735 16.8032H18.9824L16.6622 18.9013C16.5204 19.0285 16.3365 19.0988 16.146 19.0988C15.9554 19.0988 15.7715 19.0285 15.6297 18.9013L13.3054 16.8032H3.76133C3.41291 16.8032 3.0787 16.9414 2.83194 17.1874C2.58518 17.4333 2.446 17.7671 2.44492 18.1155V18.1814C2.446 18.5298 2.58518 18.8636 2.83194 19.1096C3.0787 19.3555 3.41291 19.4937 3.76133 19.4937H22.2735C22.6219 19.4937 22.9561 19.3555 23.2029 19.1096C23.4496 18.8636 23.5888 18.5298 23.5899 18.1814V18.1155C23.5888 17.7671 23.4496 17.4333 23.2029 17.1874C22.9561 16.9414 22.6219 16.8032 22.2735 16.8032ZM3.29647 15.6678V15.9805H13.6262L14.5395 16.8032L16.148 18.2595L17.7565 16.8032L18.6698 15.9805H22.7383V15.6678H3.29647ZM11.2073 14.8451C11.088 14.7628 10.977 14.6641 10.87 14.5777C10.6621 14.3591 10.412 14.1851 10.1347 14.0662C9.85752 13.9472 9.55902 13.8859 9.25738 13.8859C8.95574 13.8859 8.65724 13.9472 8.38002 14.0662C8.10281 14.1851 7.85266 14.3591 7.64477 14.5777C7.53781 14.6641 7.42674 14.7628 7.30744 14.8451H11.2073ZM18.7274 14.8451C18.6081 14.7628 18.497 14.6641 18.39 14.5777C18.1821 14.3591 17.932 14.1851 17.6548 14.0662C17.3776 13.9472 17.0791 13.8859 16.7774 13.8859C16.4758 13.8859 16.1773 13.9472 15.9001 14.0662C15.6228 14.1851 15.3727 14.3591 15.1648 14.5777C15.0578 14.6641 14.9468 14.7628 14.8275 14.8451H18.7274ZM23.4212 14.0593C23.1523 14.1982 22.9033 14.3725 22.6807 14.5777C22.5738 14.6641 22.4627 14.7587 22.3475 14.841C22.5796 14.8171 22.8012 14.7322 22.9898 14.5949C23.1784 14.4576 23.3272 14.2728 23.4212 14.0593ZM3.67494 14.841C3.55976 14.7587 3.44868 14.6641 3.34173 14.5777C3.1192 14.3725 2.87015 14.1982 2.60124 14.0593C2.69624 14.2745 2.847 14.4605 3.03793 14.5979C3.22887 14.7353 3.45305 14.8192 3.68728 14.841H3.67494ZM23.6763 13.1173C23.6876 12.8631 23.62 12.6117 23.4829 12.3973C23.4141 12.3158 23.3264 12.2522 23.2275 12.2121C23.1286 12.1719 23.0214 12.1565 22.9152 12.167H3.11958C3.01337 12.1565 2.90619 12.1719 2.80729 12.2121C2.70839 12.2522 2.62073 12.3158 2.55187 12.3973C2.41476 12.6117 2.34723 12.8631 2.35853 13.1173C2.42435 13.1173 2.48605 13.1461 2.54365 13.1666C3.04559 13.3168 3.50505 13.5831 3.88475 13.9441C4.0933 14.1623 4.3439 14.3359 4.62142 14.4546C4.89893 14.5732 5.19761 14.6343 5.49942 14.6343C5.80122 14.6343 6.0999 14.5732 6.37742 14.4546C6.65493 14.3359 6.90553 14.1623 7.11409 13.9441C7.68474 13.3799 8.45487 13.0634 9.25738 13.0634C10.0599 13.0634 10.83 13.3799 11.4007 13.9441C11.6077 14.1313 11.8354 14.2942 12.0795 14.4296C12.3706 14.5736 12.6927 14.6442 13.0174 14.6353C13.3197 14.6359 13.6189 14.5749 13.8969 14.4561C14.1749 14.3373 14.4257 14.1631 14.6341 13.9441C15.2048 13.3799 15.9749 13.0634 16.7774 13.0634C17.5799 13.0634 18.3501 13.3799 18.9207 13.9441C19.1293 14.1623 19.3799 14.3359 19.6574 14.4546C19.9349 14.5732 20.2336 14.6343 20.5354 14.6343C20.8372 14.6343 21.1359 14.5732 21.4134 14.4546C21.6909 14.3359 21.9415 14.1623 22.1501 13.9441C22.5297 13.5831 22.9892 13.3168 23.4912 13.1666C23.5487 13.1461 23.6105 13.1337 23.6763 13.1173Z" fill="#4C2F1B"/>
<path d="M9.96496 5.9181C9.96819 5.80332 10.0052 5.69204 10.0713 5.59816C10.1374 5.50429 10.2297 5.43198 10.3367 5.39028C10.4437 5.34858 10.5606 5.33933 10.6728 5.3637C10.785 5.38806 10.8876 5.44496 10.9676 5.52727C11.0477 5.60958 11.1017 5.71366 11.123 5.82651C11.1442 5.93935 11.1317 6.05595 11.0871 6.16174C11.0424 6.26753 10.9676 6.35781 10.8719 6.4213C10.7762 6.48479 10.6639 6.51867 10.5491 6.51872C10.4713 6.51764 10.3945 6.50126 10.323 6.47049C10.2516 6.43972 10.1869 6.39518 10.1326 6.33941C10.0784 6.28364 10.0357 6.21772 10.0069 6.14543C9.97812 6.07315 9.96387 5.9959 9.96496 5.9181ZM15.4857 6.51872C15.604 6.52116 15.7203 6.48837 15.8199 6.42451C15.9196 6.36066 15.9979 6.26862 16.0451 6.1601C16.0922 6.05158 16.1061 5.93149 16.0848 5.8151C16.0635 5.69871 16.0081 5.59127 15.9256 5.50645C15.8431 5.42163 15.7373 5.36326 15.6215 5.33876C15.5057 5.31427 15.3853 5.32475 15.2755 5.36888C15.1658 5.41301 15.0716 5.48879 15.005 5.58659C14.9384 5.68439 14.9024 5.79978 14.9015 5.9181C14.8999 5.99604 14.9138 6.07353 14.9423 6.14606C14.9709 6.2186 15.0136 6.28473 15.068 6.34061C15.1223 6.3965 15.1872 6.44102 15.2589 6.4716C15.3307 6.50217 15.4077 6.51819 15.4857 6.51872ZM8.08083 8.57562C8.19798 8.57724 8.31297 8.54408 8.41128 8.48034C8.50958 8.4166 8.58678 8.32515 8.63311 8.21754C8.67943 8.10993 8.69281 7.991 8.67155 7.87579C8.65029 7.76057 8.59535 7.65425 8.51366 7.57026C8.43197 7.48628 8.32722 7.4284 8.21264 7.40395C8.09806 7.37949 7.97881 7.38957 7.86995 7.43289C7.7611 7.47621 7.66753 7.55084 7.60109 7.64733C7.53465 7.74383 7.49831 7.85786 7.49667 7.97501C7.49392 8.05363 7.50696 8.132 7.53504 8.20549C7.56311 8.27898 7.60563 8.3461 7.6601 8.40287C7.71456 8.45963 7.77986 8.5049 7.85213 8.53598C7.9244 8.56707 8.00216 8.58335 8.08083 8.58385V8.57562ZM17.954 8.57562C18.0711 8.57724 18.1861 8.54408 18.2844 8.48034C18.3827 8.4166 18.4599 8.32515 18.5062 8.21754C18.5526 8.10993 18.566 7.991 18.5447 7.87579C18.5234 7.76057 18.4685 7.65425 18.3868 7.57026C18.3051 7.48628 18.2004 7.4284 18.0858 7.40395C17.9712 7.37949 17.8519 7.38957 17.7431 7.43289C17.6342 7.47621 17.5407 7.55084 17.4742 7.64733C17.4078 7.74383 17.3714 7.85786 17.3698 7.97501C17.3671 8.05363 17.3801 8.132 17.4082 8.20549C17.4362 8.27898 17.4788 8.3461 17.5332 8.40287C17.5877 8.45963 17.653 8.5049 17.7253 8.53598C17.7975 8.56707 17.8753 8.58335 17.954 8.58385V8.57562ZM13.0174 8.57562C13.1345 8.57724 13.2495 8.54408 13.3478 8.48034C13.4462 8.4166 13.5233 8.32515 13.5697 8.21754C13.616 8.10993 13.6294 7.991 13.6081 7.87579C13.5869 7.76057 13.5319 7.65425 13.4502 7.57026C13.3685 7.48628 13.2638 7.4284 13.1492 7.40395C13.0346 7.37949 12.9154 7.38957 12.8065 7.43289C12.6977 7.47621 12.6041 7.55084 12.5377 7.64733C12.4712 7.74383 12.4349 7.85786 12.4332 7.97501C12.4305 8.05363 12.4435 8.132 12.4716 8.20549C12.4997 8.27898 12.5422 8.3461 12.5967 8.40287C12.6511 8.45963 12.7164 8.5049 12.7887 8.53598C12.861 8.56707 12.9387 8.58335 13.0174 8.58385V8.57562ZM23.557 15.203C23.5592 15.2207 23.5592 15.2387 23.557 15.2564V16.4124C23.8222 16.6099 24.0374 16.8669 24.1853 17.1627C24.3332 17.4585 24.4097 17.7848 24.4085 18.1155V18.1814C24.4093 18.6804 24.2346 19.1639 23.9149 19.5471C24.028 19.5871 24.126 19.6612 24.1952 19.7592C24.2645 19.8572 24.3016 19.9743 24.3016 20.0943C24.3016 22.2458 22.6561 23.9942 20.6526 23.9942H5.37806C3.36641 23.9942 1.72911 22.2458 1.72911 20.0943C1.72906 19.9743 1.76622 19.8572 1.83548 19.7592C1.90473 19.6612 2.00268 19.5871 2.11581 19.5471C1.79611 19.1639 1.62136 18.6804 1.62215 18.1814V18.1155C1.62103 17.7848 1.69748 17.4585 1.84537 17.1627C1.99327 16.8669 2.20848 16.6099 2.47371 16.4124V15.2564C2.47152 15.2387 2.47152 15.2207 2.47371 15.203C2.28636 15.0513 2.12755 14.8674 2.00474 14.6599C1.84979 14.4258 1.74864 14.1603 1.70854 13.8824C1.60008 13.6427 1.53863 13.3843 1.52754 13.1214C1.4969 12.6793 1.62691 12.2411 1.89367 11.8872C1.94691 11.8178 2.0061 11.7531 2.07056 11.6939C2.04999 11.6939 2.03353 11.6527 2.01297 11.6322C1.87692 11.4698 1.77836 11.2795 1.72432 11.0747C1.67028 10.8699 1.66208 10.6557 1.70032 10.4474C2.17689 7.79386 3.57107 5.39228 5.63907 3.6626C7.70708 1.93293 10.3173 0.985229 13.0133 0.985229C15.7093 0.985229 18.3195 1.93293 20.3875 3.6626C22.4555 5.39228 23.8497 7.79386 24.3263 10.4474C24.3645 10.6557 24.3563 10.8699 24.3023 11.0747C24.2482 11.2795 24.1497 11.4698 24.0136 11.6322C23.993 11.6527 23.9766 11.6774 23.956 11.6939C24.0205 11.7531 24.0797 11.8178 24.1329 11.8872C24.3997 12.2411 24.5297 12.6793 24.499 13.1214C24.4879 13.3843 24.4265 13.6427 24.318 13.8824C24.2779 14.1603 24.1768 14.4258 24.0218 14.6599C23.9003 14.867 23.7429 15.0509 23.557 15.203ZM2.64649 11.118C2.7029 11.1892 2.77485 11.2466 2.85684 11.2859C2.93883 11.3251 3.0287 11.345 3.11958 11.3442H22.9152C23.0061 11.345 23.096 11.3251 23.178 11.2859C23.26 11.2466 23.3319 11.1892 23.3883 11.118C23.4461 11.0469 23.4879 10.9641 23.5106 10.8753C23.5333 10.7865 23.5365 10.6939 23.52 10.6037C23.0768 8.14086 21.7822 5.91207 19.8624 4.3069C17.9426 2.70174 15.5198 1.8223 13.0174 1.8223C10.515 1.8223 8.09216 2.70174 6.17238 4.3069C4.25261 5.91207 2.95801 8.14086 2.51485 10.6037C2.49829 10.6939 2.50149 10.7865 2.52422 10.8753C2.54695 10.9641 2.58866 11.0469 2.64649 11.118ZM23.4747 20.337H2.5601C2.58546 21.0778 2.89001 21.7817 3.41265 22.3074C3.93529 22.8331 4.63737 23.1417 5.37806 23.1714H20.6567C21.3974 23.1417 22.0995 22.8331 22.6222 22.3074C23.1448 21.7817 23.4493 21.0778 23.4747 20.337ZM22.2735 16.8032H18.9824L16.6622 18.9013C16.5204 19.0285 16.3365 19.0988 16.146 19.0988C15.9554 19.0988 15.7715 19.0285 15.6297 18.9013L13.3054 16.8032H3.76133C3.41291 16.8032 3.0787 16.9414 2.83194 17.1874C2.58518 17.4333 2.446 17.7671 2.44492 18.1155V18.1814C2.446 18.5298 2.58518 18.8636 2.83194 19.1096C3.0787 19.3555 3.41291 19.4937 3.76133 19.4937H22.2735C22.6219 19.4937 22.9561 19.3555 23.2029 19.1096C23.4496 18.8636 23.5888 18.5298 23.5899 18.1814V18.1155C23.5888 17.7671 23.4496 17.4333 23.2029 17.1874C22.9561 16.9414 22.6219 16.8032 22.2735 16.8032ZM3.29647 15.6678V15.9805H13.6262L14.5395 16.8032L16.148 18.2595L17.7565 16.8032L18.6698 15.9805H22.7383V15.6678H3.29647ZM11.2073 14.8451C11.088 14.7628 10.977 14.6641 10.87 14.5777C10.6621 14.3591 10.412 14.1851 10.1347 14.0662C9.85752 13.9472 9.55902 13.8859 9.25738 13.8859C8.95574 13.8859 8.65724 13.9472 8.38002 14.0662C8.10281 14.1851 7.85266 14.3591 7.64477 14.5777C7.53781 14.6641 7.42674 14.7628 7.30744 14.8451H11.2073ZM18.7274 14.8451C18.6081 14.7628 18.497 14.6641 18.39 14.5777C18.1821 14.3591 17.932 14.1851 17.6548 14.0662C17.3776 13.9472 17.0791 13.8859 16.7774 13.8859C16.4758 13.8859 16.1773 13.9472 15.9001 14.0662C15.6228 14.1851 15.3727 14.3591 15.1648 14.5777C15.0578 14.6641 14.9468 14.7628 14.8275 14.8451H18.7274ZM23.4212 14.0593C23.1523 14.1982 22.9033 14.3725 22.6807 14.5777C22.5738 14.6641 22.4627 14.7587 22.3475 14.841C22.5796 14.8171 22.8012 14.7322 22.9898 14.5949C23.1784 14.4576 23.3272 14.2728 23.4212 14.0593ZM3.67494 14.841C3.55976 14.7587 3.44868 14.6641 3.34173 14.5777C3.1192 14.3725 2.87015 14.1982 2.60124 14.0593C2.69624 14.2745 2.847 14.4605 3.03793 14.5979C3.22887 14.7353 3.45305 14.8192 3.68728 14.841H3.67494ZM23.6763 13.1173C23.6876 12.8631 23.62 12.6117 23.4829 12.3973C23.4141 12.3158 23.3264 12.2522 23.2275 12.2121C23.1286 12.1719 23.0214 12.1565 22.9152 12.167H3.11958C3.01337 12.1565 2.90619 12.1719 2.80729 12.2121C2.70839 12.2522 2.62073 12.3158 2.55187 12.3973C2.41476 12.6117 2.34723 12.8631 2.35853 13.1173C2.42435 13.1173 2.48605 13.1461 2.54365 13.1666C3.04559 13.3168 3.50505 13.5831 3.88475 13.9441C4.0933 14.1623 4.3439 14.3359 4.62142 14.4546C4.89893 14.5732 5.19761 14.6343 5.49942 14.6343C5.80122 14.6343 6.0999 14.5732 6.37742 14.4546C6.65493 14.3359 6.90553 14.1623 7.11409 13.9441C7.68474 13.3799 8.45487 13.0634 9.25738 13.0634C10.0599 13.0634 10.83 13.3799 11.4007 13.9441C11.6077 14.1313 11.8354 14.2942 12.0795 14.4296C12.3706 14.5736 12.6927 14.6442 13.0174 14.6353C13.3197 14.6359 13.6189 14.5749 13.8969 14.4561C14.1749 14.3373 14.4257 14.1631 14.6341 13.9441C15.2048 13.3799 15.9749 13.0634 16.7774 13.0634C17.5799 13.0634 18.3501 13.3799 18.9207 13.9441C19.1293 14.1623 19.3799 14.3359 19.6574 14.4546C19.9349 14.5732 20.2336 14.6343 20.5354 14.6343C20.8372 14.6343 21.1359 14.5732 21.4134 14.4546C21.6909 14.3359 21.9415 14.1623 22.1501 13.9441C22.5297 13.5831 22.9892 13.3168 23.4912 13.1666C23.5487 13.1461 23.6105 13.1337 23.6763 13.1173Z" stroke="#4C2F1B" stroke-width="0.63177" mask="url(#path-6-outside-1_52_229)"/>
</svg>
