<svg width="23" height="31" viewBox="0 0 23 31" fill="none" xmlns="http://www.w3.org/2000/svg">
<g clip-path="url(#clip0_50_203)">
<path d="M16.1503 2.59529H14.1524C14.1382 2.59529 14.1236 2.58109 14.1236 2.56651V0.569069C14.1236 0.554489 14.1382 0.540283 14.1524 0.540283H16.1503C16.1645 0.540283 16.1791 0.554489 16.1791 0.569069V2.56651C16.1787 2.58557 16.1693 2.59529 16.1503 2.59529Z" fill="#3DE25C"/>
<path d="M15.954 3.13553H14.3483C13.9277 3.13553 13.5837 2.79122 13.5837 2.37065V0.764629C13.5837 0.344057 13.9277 0.00012207 14.3483 0.00012207H15.954C16.3746 0.00012207 16.7185 0.344057 16.7185 0.764629V2.37028C16.7189 2.79122 16.3749 3.13553 15.954 3.13553ZM14.6589 2.05999H15.6433V1.07529H14.6589V2.05999ZM11.9395 30.0088C8.60805 30.0088 6.95934 29.5594 6.27593 29.2921C5.78356 29.1007 5.42503 28.6566 5.3439 28.1306L2.38519 9.45832H21.4792L18.879 28.0831C18.7979 28.6469 18.4155 29.1104 17.8801 29.297C17.0965 29.5598 15.2896 30.0088 11.9395 30.0088ZM7.08346 27.6768C7.66668 27.8726 9.0907 28.2121 11.9395 28.2121C14.8597 28.2121 16.4561 27.8536 17.1301 27.648L19.4193 11.2408H4.48328L7.08346 27.6768Z" fill="#4C2F1B"/>
<path d="M19.7729 8.50727H4.1109V5.61112C4.1109 3.42228 5.88859 1.64429 8.0779 1.64429H15.8014C17.9904 1.64429 19.7684 3.42228 19.7684 5.61112V8.50727H19.7729ZM5.9028 6.71508H17.9806V5.60626C17.9806 4.4066 17.0056 3.43162 15.8059 3.43162H8.08239C6.88268 3.43162 5.90766 4.4066 5.90766 5.60626V6.71508H5.9028Z" fill="#4C2F1B"/>
<path d="M20.8197 10.6625L11.9922 10.9971H11.7866L3.05922 10.6625C2.7149 10.6483 2.4618 10.3328 2.52386 9.99335L3.11642 6.86318C3.22148 6.66728 3.54187 6.4856 3.78563 6.4856H20.2604C20.5139 6.4856 20.6619 6.68149 20.7625 6.89196L21.3551 9.98887C21.4216 10.3279 21.1685 10.6483 20.8197 10.6625Z" fill="#DAE3ED"/>
<path d="M11.7866 11.8908L3.02566 11.5562C2.60021 11.542 2.20355 11.3412 1.93586 11.0066C1.66818 10.672 1.56313 10.2417 1.64425 9.82154L2.26561 6.55716L2.33253 6.43304C2.59535 5.94069 3.21184 5.58704 3.7902 5.58704H20.265C20.5902 5.58704 21.197 5.70629 21.5746 6.5093L21.6225 6.61435L22.239 9.82117C22.3205 10.2417 22.215 10.672 21.9473 11.0062C21.6797 11.3408 21.283 11.5416 20.8575 11.5558L11.7866 11.8908ZM3.4799 9.78304L11.8248 10.103H11.9967L20.4041 9.78304L19.9453 7.38372H3.93413L3.4799 9.78304Z" fill="#4C2F1B"/>
<path d="M3.12134 13.6019C3.12134 13.6019 10.9836 14.6057 20.767 13.6019L18.9699 25.292C18.9699 25.292 11.6909 26.5107 5.17157 25.3779L3.12134 13.6019Z" fill="#00FF78"/>
<path d="M11.3753 26.7591C9.36325 26.7591 7.15973 26.6301 5.01865 26.2622C4.64591 26.1953 4.35468 25.9037 4.28776 25.531L2.23752 13.755C2.18967 13.4731 2.27565 13.1864 2.47156 12.9807C2.66746 12.7751 2.94972 12.6749 3.23161 12.7131C3.30825 12.7228 11.1178 13.6929 20.6721 12.7082C20.9491 12.6794 21.2216 12.78 21.4131 12.9807C21.6041 13.1815 21.6901 13.4589 21.6471 13.7359L19.8548 25.4308C19.7972 25.8132 19.4963 26.1142 19.1187 26.1762C18.9127 26.2095 15.5622 26.7591 11.3753 26.7591ZM5.94581 24.5941C10.969 25.3444 16.3649 24.747 18.1859 24.5033L19.7056 14.6055C12.6416 15.2316 6.66736 14.8399 4.20588 14.6152L5.94581 24.5941Z" fill="#4C2F1B"/>
<path d="M11.9728 18.0944C11.0359 18.1277 10.3143 18.8974 10.0803 19.5856C9.71691 20.6511 10.3768 21.2533 10.9835 21.2533C11.366 21.2533 11.8008 20.6417 11.6195 20.0634C11.3372 19.1647 12.7377 18.0705 11.9728 18.0944ZM11.9728 21.3681C12.9097 21.3345 13.5691 20.5651 13.8036 19.8769C14.1666 18.811 13.5071 18.2088 12.8525 18.2088C12.6136 18.2088 12.1021 18.5194 12.2644 19.3987C12.4319 20.3356 11.2082 21.392 11.9728 21.3681Z" fill="white"/>
</g>
<defs>
<clipPath id="clip0_50_203">
<rect width="22" height="31" fill="white" transform="translate(0.808838)"/>
</clipPath>
</defs>
</svg>
