<svg width="30" height="29" viewBox="0 0 30 29" fill="none" xmlns="http://www.w3.org/2000/svg">
<path d="M1.99078 16.9813V20.0694H26.4082C27.0946 20.0694 27.6183 16.9269 27.6183 16.9269L1.99078 16.9813Z" fill="#F2C05A"/>
<path d="M1.9905 20.8247C1.56733 20.8247 1.23541 20.4928 1.23541 20.0693V16.9809C1.23541 16.5646 1.57414 16.2258 1.9905 16.2258L27.6363 16.1714C27.8494 16.1714 28.07 16.2725 28.198 16.4291C28.3453 16.6057 28.4019 16.8204 28.3589 17.0351C27.7331 20.8247 26.7838 20.8247 26.4265 20.8247H1.9905ZM26.1969 19.3322L26.2477 19.2304C26.3621 19.0015 26.4942 18.5953 26.6761 17.9133L26.738 17.6816L2.76384 17.7366V19.3322H2.94759H26.1969Z" fill="#4C2F1B"/>
<path d="M21.0443 1.70193C20.5206 1.43096 19.8704 1.50334 19.437 1.90084L2.00873 16.9813H5.25985V25.6683C5.25985 26.6978 6.09041 27.5284 7.11988 27.5284C8.14935 27.5284 8.97992 26.6978 8.97992 25.6683V16.9813H10.9123V21.0809C10.9123 22.1283 11.7791 22.9954 12.8268 22.9954C13.8742 22.9954 14.7413 22.1286 14.7413 21.0809V16.9813H17.5046C17.7756 18.0107 18.6968 18.7692 19.7983 18.7692C20.9002 18.7692 21.839 18.0107 22.092 16.9813L27.6545 16.9633C29.406 6.9758 23.4101 2.89411 21.0443 1.70193Z" fill="#FFDE8A"/>
<path d="M15.3012 8.27599C16.3666 8.27599 17.2157 7.42717 17.2157 6.36151C17.2157 5.62096 16.8002 5.00693 16.2042 4.68213L13.5132 7.01174C13.7842 7.75229 14.4703 8.27599 15.3012 8.27599Z" fill="#FF5C5C"/>
<path d="M15.3012 8.65521C14.3438 8.65521 13.4771 8.04118 13.152 7.13823C13.0978 6.99377 13.1337 6.83137 13.2602 6.7231L15.9511 4.39318C16.0594 4.28492 16.2401 4.26667 16.3663 4.33905C17.1248 4.73655 17.5764 5.51298 17.5764 6.34385C17.595 7.62574 16.5655 8.65521 15.3012 8.65521ZM13.9646 7.12029C14.2356 7.60811 14.7413 7.91497 15.3012 7.91497C16.15 7.91497 16.8365 7.22886 16.8365 6.37974C16.8365 5.89223 16.6017 5.44059 16.2221 5.15168L13.9646 7.12029Z" fill="#4C2F1B"/>
<path d="M21.6404 9.91946C21.4236 10.8407 22.0197 11.7798 22.9406 11.9784C23.5908 12.1229 24.2228 11.8881 24.6203 11.4185L23.1033 8.58313C22.3989 8.67346 21.8028 9.17891 21.6404 9.91946Z" fill="#FF5C5C"/>
<path d="M23.3198 12.3938C23.1753 12.3938 23.0129 12.3758 22.8685 12.3396C21.7487 12.0869 21.0264 10.9671 21.2791 9.82937C21.4777 8.98055 22.1821 8.33033 23.0671 8.22206C23.2115 8.20412 23.3742 8.27619 23.4463 8.42065L24.9633 11.2381C25.0357 11.3825 25.0174 11.5449 24.9092 11.6535C24.4937 12.1228 23.9159 12.3938 23.3198 12.3938ZM22.0014 9.99177C21.929 10.3531 21.9835 10.7141 22.1817 11.003C22.3806 11.3098 22.6696 11.5267 23.0306 11.5991C23.4281 11.6894 23.8432 11.5811 24.1683 11.3281L22.9223 8.99849C22.453 9.16089 22.1097 9.52189 22.0014 9.99177Z" fill="#4C2F1B"/>
<path d="M7.1017 28.2657C5.65958 28.2657 4.48596 27.0923 4.48596 25.6499V17.7182H1.99055C1.66884 17.7182 1.39693 17.5268 1.29795 17.2301C1.17916 16.9316 1.26639 16.6025 1.51139 16.4005L18.9431 1.31726C19.3471 0.972655 19.8593 0.782104 20.3849 0.782104C20.731 0.782104 21.0648 0.861294 21.3772 1.01782C23.4937 2.08472 30.2546 6.39376 28.3763 17.0396C28.319 17.3968 28.001 17.6641 27.636 17.6641L22.5932 17.6827L22.5422 17.7816C22.0043 18.8232 20.9457 19.4703 19.7798 19.4703C18.6143 19.4703 17.5557 18.8235 17.0175 17.7816L16.9658 17.682H15.4782V21.0266C15.4782 22.4888 14.2888 23.6782 12.8266 23.6782C11.3643 23.6782 10.1753 22.4888 10.1753 21.0269V17.6824H9.73508V25.614C9.71837 27.0753 8.53702 28.2657 7.1017 28.2657ZM20.3663 2.29383C20.1962 2.29383 20.0387 2.35384 19.9107 2.46767L4.00742 16.226H5.24136C5.45078 16.226 5.63329 16.3005 5.75486 16.436C5.90365 16.5851 5.97851 16.7714 5.97851 16.9814V25.6685C5.97851 26.2878 6.48241 26.7917 7.10139 26.7917C7.7312 26.7917 8.22428 26.2983 8.22428 25.6685V16.9811C8.22428 16.5647 8.56301 16.226 8.97937 16.226H10.9118C11.1209 16.226 11.3034 16.3005 11.4253 16.436C11.5741 16.5851 11.6489 16.7714 11.6489 16.9814V21.081C11.6489 21.7201 12.1689 22.2401 12.808 22.2401C13.4471 22.2401 13.9671 21.7201 13.9671 21.081V16.9631C13.9671 16.5465 14.3058 16.2077 14.7222 16.2077H17.4855C17.8307 16.2077 18.1221 16.4357 18.2106 16.7748C18.3952 17.4937 19.0405 17.996 19.7792 17.996C20.5179 17.996 21.1632 17.4937 21.3478 16.7745C21.4363 16.436 21.7277 16.2081 22.0726 16.2081L27.0007 16.1895L27.0226 16.0317C28.2528 7.22495 23.0068 3.54324 20.6942 2.369C20.5822 2.31796 20.4743 2.29383 20.3663 2.29383Z" fill="#4C2F1B"/>
<path d="M27.6363 16.9267C29.4425 6.75888 23.1574 2.73133 20.8999 1.62979C20.4483 1.41294 19.9063 1.48533 19.5271 1.81044L18.1545 3.00262C21.1526 5.2419 26.1914 9.37803 24.6562 16.9453L27.6363 16.9267Z" fill="#FFB07B"/>
<path d="M24.6564 17.6822C24.4371 17.6822 24.2196 17.5786 24.0754 17.405C23.9316 17.2327 23.8719 17.0001 23.9155 16.782C25.2376 10.2458 21.5086 6.44805 17.6867 3.59536C17.5061 3.47007 17.3966 3.25787 17.3808 3.00886C17.3669 2.78428 17.4612 2.56991 17.64 2.42112L19.0153 1.22646C19.3825 0.909394 19.8468 0.734619 20.3226 0.734619C20.6251 0.734619 20.9267 0.807313 21.1955 0.944658C23.3572 1.99887 30.251 6.27142 28.3403 17.0573C28.283 17.4149 27.965 17.6822 27.6003 17.6822H24.6564ZM20.3331 2.24634C20.2084 2.24634 20.0859 2.29151 19.9873 2.37379L19.3309 2.95689L19.5041 3.09269C21.2364 4.45314 26.5081 8.59329 25.5575 15.9641L25.5309 16.1714H26.9838L27.0058 16.013C28.2589 7.03826 22.9055 3.42986 20.5459 2.29491C20.4831 2.26367 20.4089 2.24634 20.3331 2.24634Z" fill="#4C2F1B"/>
<path d="M24.6564 16.9269C24.6564 16.9269 24.4937 18.9134 23.7714 20.0694H26.4261C26.4261 20.0694 27.3653 19.5637 27.6363 16.9269H24.6564Z" fill="#E2803D"/>
<path d="M23.7714 20.8247C23.4933 20.8247 23.2505 20.679 23.1212 20.4349C22.986 20.1939 22.9913 19.9059 23.1327 19.6792C23.6526 18.8322 23.8667 17.3285 23.9007 16.8683C23.9289 16.4875 24.2531 16.1896 24.6385 16.1896H27.6183C27.8395 16.1896 28.0375 16.2768 28.1625 16.4293C28.3199 16.6028 28.3852 16.8014 28.357 17.0109C28.0508 19.913 26.9693 20.6245 26.7556 20.7377C26.669 20.7943 26.5462 20.8247 26.4262 20.8247H23.7714ZM25.3067 17.83C25.2352 18.1876 25.1461 18.6327 25.0044 19.0942L24.9314 19.3321H26.1428L26.1979 19.2535C26.3222 19.0757 26.5573 18.6643 26.7321 17.9073L26.7841 17.6821H25.3364L25.3067 17.83Z" fill="#4C2F1B"/>
<path d="M10.3165 13.1523C10.3165 13.8405 10.8743 14.3983 11.5625 14.3983C12.2508 14.3983 12.8085 13.8405 12.8085 13.1523C12.8085 12.464 12.2508 11.9062 11.5625 11.9062C10.8743 11.9062 10.3165 12.464 10.3165 13.1523Z" fill="#FF5C5C"/>
<path d="M11.5625 14.7778C10.6775 14.7778 9.93695 14.0555 9.93695 13.1525C9.93695 12.2496 10.6592 11.527 11.5625 11.527C12.4655 11.527 13.1878 12.2493 13.1878 13.1525C13.1878 14.0552 12.4655 14.7778 11.5625 14.7778ZM11.5625 12.2855C11.075 12.2855 10.6958 12.683 10.6958 13.1522C10.6958 13.6218 11.0929 14.019 11.5625 14.019C12.0321 14.019 12.4293 13.6215 12.4293 13.1522C12.4293 12.6827 12.05 12.2855 11.5625 12.2855Z" fill="#4C2F1B"/>
<path d="M17.7032 14.3985H15.0844C14.9399 14.3985 14.8134 14.272 14.8134 14.1276V13.5315C14.8134 13.387 14.9399 13.2605 15.0844 13.2605H17.7032C17.8477 13.2605 17.9742 13.387 17.9742 13.5315V14.1276C17.9921 14.272 17.8656 14.3985 17.7032 14.3985Z" fill="#3DE25C"/>
<path d="M17.4142 14.7779H15.3915C14.8678 14.7779 14.4523 14.3625 14.4523 13.8388C14.4523 13.3151 14.8678 12.8997 15.3915 12.8997H17.4142C17.9379 12.8997 18.3534 13.3151 18.3534 13.8388C18.3534 14.3625 17.9379 14.7779 17.4142 14.7779ZM15.3915 13.6399C15.2832 13.6399 15.1929 13.7302 15.1929 13.8385C15.1929 13.9471 15.2832 14.0374 15.3915 14.0374H17.4142C17.5225 14.0374 17.6128 13.9471 17.6128 13.8385C17.6128 13.7302 17.5225 13.6399 17.4142 13.6399H15.3915Z" fill="#4C2F1B"/>
<path d="M19.5091 11.6711L18.1184 10.1541C18.0642 10.0999 18.0642 10.0096 18.1184 9.95548L18.7503 9.37764C18.8045 9.3235 18.8948 9.3235 18.9492 9.37764L20.34 10.8946C20.3941 10.9488 20.3941 11.0391 20.34 11.0932L19.708 11.6711C19.6715 11.7255 19.5633 11.7255 19.5091 11.6711Z" fill="#3DE25C"/>
<path d="M19.6356 12.0324H19.5997C19.4191 12.0324 19.2564 11.9421 19.1302 11.8155L17.9383 10.5333C17.8118 10.4068 17.7576 10.2265 17.7576 10.0458C17.7576 9.86549 17.848 9.70278 17.9745 9.57626L18.3717 9.21495C18.4982 9.08844 18.6788 9.0343 18.8595 9.0343C19.0401 9.0343 19.2025 9.12463 19.3291 9.25115L20.5209 10.5333C20.6474 10.6599 20.7016 10.8405 20.7016 11.0212C20.7016 11.2018 20.6113 11.3642 20.4847 11.4907L20.0875 11.852C19.9607 11.96 19.798 12.0324 19.6356 12.0324ZM18.552 10.0638L19.6356 11.2377L19.9245 10.9667L18.8409 9.79279L18.552 10.0638Z" fill="#4C2F1B"/>
</svg>
