<svg width="26" height="29" viewBox="0 0 26 29" fill="none" xmlns="http://www.w3.org/2000/svg">
<g clip-path="url(#clip0_50_187)">
<path d="M0.396179 23.7071C0.396179 25.8628 4.966 27.6102 10.6033 27.6102C16.2405 27.6102 20.8103 25.8628 20.8103 23.7071C20.8103 21.5513 16.2405 19.804 10.6033 19.804C4.966 19.8037 0.396179 21.5513 0.396179 23.7071Z" fill="#3DE25C"/>
<path d="M10.8666 28.2696C5.59894 28.2696 0 26.6704 0 23.7069C0 20.7435 5.59894 19.1443 10.8666 19.1443C16.1343 19.1443 21.7332 20.7432 21.7332 23.7069C21.7332 26.6707 16.1346 28.2696 10.8666 28.2696ZM10.8666 20.4631C4.95137 20.4631 1.31909 22.3522 1.31909 23.7066C1.31909 25.061 4.95137 26.9502 10.8666 26.9502C16.7819 26.9502 20.4141 25.061 20.4141 23.7066C20.4141 22.3522 16.7819 20.4631 10.8666 20.4631Z" fill="#4C2F1B"/>
<path d="M18.6728 19.8811C18.4406 19.8811 18.2237 19.8192 18.0534 19.6797C17.7437 19.4475 17.5887 19.0603 17.6662 18.6419L18.5337 13.1899C18.6112 12.7408 18.9054 12.338 19.3234 12.1366C19.5712 12.0127 20.8879 11.4241 22.1271 11.4241C22.8704 11.4241 23.4746 11.6255 23.9082 12.0435C24.6982 12.7871 24.8532 14.0727 24.3574 15.8694C23.676 18.3167 22.6693 18.7503 21.0893 19.1686C20.5782 19.3081 19.9587 19.4628 19.1531 19.7881L19.0137 19.8345C18.9054 19.8656 18.7815 19.8811 18.6728 19.8811ZM20.3456 16.9539C20.5315 16.9075 20.7173 16.8611 20.8723 16.83C21.8946 16.5822 21.8946 16.5822 22.2043 15.5136C22.514 14.4142 22.3901 13.9958 22.3282 13.9339C22.3282 13.9339 22.2507 13.8719 21.9873 13.8719C21.6932 13.8719 21.2593 13.9647 20.8101 14.1197L20.3456 16.9539Z" fill="#00FF78"/>
<path d="M22.1271 11.9356C22.6693 11.9356 23.1957 12.0595 23.5673 12.4159C24.2179 13.0197 24.3262 14.135 23.8774 15.7459C23.2421 17.9918 22.4212 18.317 20.9498 18.6887C20.4387 18.8282 19.7881 18.9984 18.9517 19.3237C18.9206 19.3393 18.8898 19.3393 18.8742 19.3548C18.8123 19.3704 18.7348 19.386 18.6728 19.386C18.549 19.386 18.4406 19.3548 18.3476 19.2776C18.1928 19.1537 18.1153 18.9524 18.1462 18.7201L19.0137 13.2681C19.0601 12.974 19.2615 12.7106 19.5248 12.5867C19.7262 12.4931 20.9806 11.9356 22.1271 11.9356ZM19.7418 17.6354C20.2373 17.4803 20.6401 17.3876 20.9962 17.3101C22.2198 17.0159 22.2973 17.0004 22.6846 15.6528C22.9015 14.9095 23.0562 13.9337 22.6534 13.5772C22.4984 13.4378 22.2662 13.3914 21.9873 13.3914C21.4918 13.3914 20.8565 13.5772 20.3765 13.7631L19.7418 17.6354ZM22.1271 10.9597C20.7796 10.9597 19.3701 11.5795 19.1068 11.7186C18.5493 11.982 18.1309 12.5242 18.0381 13.1436L17.1709 18.5956C17.0781 19.1843 17.2948 19.7726 17.7595 20.1134C18.0229 20.2993 18.3326 20.4076 18.6731 20.4076C18.8282 20.4076 18.9832 20.3923 19.1379 20.3457C19.1998 20.3301 19.2618 20.3145 19.3237 20.2837C20.0982 19.9737 20.7179 19.819 21.1979 19.6951C22.9018 19.2459 24.0632 18.7659 24.8224 16.055C25.3799 14.0725 25.1788 12.6167 24.2338 11.7336C23.7068 11.2075 22.9943 10.9597 22.1271 10.9597ZM21.2443 14.4912C21.4921 14.4136 21.7243 14.3673 21.9104 14.3673C21.9104 14.5375 21.8793 14.8628 21.7246 15.3895C21.6626 15.5909 21.5387 16.0245 21.4612 16.164C21.3685 16.2103 21.1668 16.257 20.9501 16.3034L21.2443 14.4912Z" fill="#4C2F1B"/>
<path d="M20.5627 12.9578L10.9906 13.128H1.2791C1.2791 13.128 0.566594 24.3418 10.9906 24.3418C21.4146 24.3418 20.5627 12.9578 20.5627 12.9578Z" fill="#00FF78"/>
<path d="M10.9298 25.0016C7.79937 25.0016 5.30663 24.0339 3.52011 22.1252C0.614706 19.0298 0.51775 14.4654 0.557251 13.14L0.558747 13.0817C0.583285 12.7429 0.873257 12.4688 1.21829 12.4688H10.9298C10.9298 12.4688 20.4899 12.2982 20.4902 12.2982C20.8598 12.2982 21.1372 12.5601 21.162 12.9075C21.2003 13.4913 21.446 18.7057 18.277 22.1261C16.5051 24.0342 14.033 25.0016 10.9298 25.0016ZM1.87784 13.954C1.92123 15.3565 2.26267 18.8733 4.49297 21.2311C6.02452 22.8575 8.19527 23.6822 10.9451 23.6822C13.6596 23.6822 15.7995 22.8623 17.305 21.2458C19.5356 18.8398 19.8438 15.2353 19.8729 13.7975L19.8761 13.6299L10.9576 13.7879H1.87275L1.87784 13.954Z" fill="#4C2F1B"/>
<path d="M1.15515 13.2986C1.15515 15.9332 5.50323 18.0692 10.8667 18.0692C16.2301 18.0692 20.5782 15.9332 20.5782 13.2986C20.5782 10.6637 16.2304 8.52795 10.8667 8.52795C5.50323 8.52795 1.15515 10.6637 1.15515 13.2986Z" fill="#D6E6EA"/>
<path d="M1.15515 13.2986C1.15515 15.9332 5.50323 18.0692 10.8667 18.0692C16.2301 18.0692 20.5782 15.9332 20.5782 13.2986C20.5782 10.6637 16.2304 8.52795 10.8667 8.52795C5.50323 8.52795 1.15515 10.6637 1.15515 13.2986Z" fill="#FCDCD6"/>
<path d="M10.7119 10.8977C6.25101 10.8977 3.09154 12.4466 1.85236 14.1969C1.99181 16.8144 5.60074 18.0692 10.8822 18.0692C15.7456 18.0692 19.1998 17.3259 19.9276 15.0025C19.1842 12.9266 15.6836 10.8977 10.7119 10.8977Z" fill="#724E3B"/>
<path d="M10.8667 18.7284C5.05107 18.7284 0.495605 16.3434 0.495605 13.2986C0.495605 10.2537 5.05107 7.86841 10.8667 7.86841C16.6823 7.86841 21.2377 10.2537 21.2377 13.2986C21.2377 16.3434 16.6823 18.7284 10.8667 18.7284ZM10.8667 9.1875C5.45206 9.1875 1.81469 11.3131 1.81469 13.2986C1.81469 15.2431 5.53226 17.4094 10.8667 17.4094C16.2011 17.4094 19.9183 15.2428 19.9183 13.2986C19.9186 11.3131 16.2813 9.1875 10.8667 9.1875Z" fill="#4C2F1B"/>
<path d="M4.70209 14.77C4.70209 14.77 8.57436 14.4447 9.36408 14.2744C10.1385 14.1038 11.5016 14.1349 12.3844 14.1038C13.2672 14.073 16.0553 14.4291 16.0553 14.4291C16.0553 14.4291 13.128 14.4755 13.0041 14.4291C12.8803 14.3827 9.90632 14.8163 9.90632 14.8163L4.70209 14.77ZM5.136 13.221C5.136 13.221 7.27323 12.0749 8.04799 11.9199C8.82244 11.7496 10.1852 11.7805 11.0683 11.7496C11.9511 11.7185 13.7325 11.9355 13.7325 11.9355C13.7325 11.9355 11.8119 12.1213 11.688 12.0749C11.5642 12.0285 9.00828 12.741 9.00828 12.741L5.136 13.221ZM8.37297 16.6438C8.37297 16.6438 9.44159 16.5819 10.216 16.4116C10.9905 16.2414 12.3536 16.2722 13.2364 16.2414C14.1191 16.2258 14.7853 16.1019 14.7853 16.1019C14.7853 16.1019 13.9333 16.4583 13.67 16.5511C13.5461 16.5975 11.6411 16.9075 11.6411 16.9075L8.37297 16.6438Z" fill="#9B6F5C"/>
<path d="M7.83074 7.24227C7.72241 7.24227 7.59852 7.19589 7.50545 7.11838C7.30406 6.93255 7.27294 6.62253 7.45907 6.42143C8.06295 5.74004 7.86186 5.19781 7.70685 4.95003C7.66046 4.87252 7.58296 4.79502 7.50545 4.70225C7.13379 4.25308 6.42127 3.43224 7.39712 2.11554C7.55214 1.89859 7.86186 1.8522 8.07851 2.00722C8.29547 2.16193 8.34185 2.47165 8.18684 2.6886C7.67573 3.38555 7.89268 3.63363 8.24879 4.05168C8.34155 4.16001 8.43462 4.26864 8.51213 4.39253C8.71352 4.70225 9.28658 5.80199 8.18684 7.05644C8.10964 7.18033 7.97019 7.24227 7.83074 7.24227Z" fill="#4C2F1B"/>
<path d="M11.4245 6.06515C11.3162 6.06515 11.192 6.01876 11.0992 5.94126C10.8978 5.75542 10.867 5.4457 11.0528 5.24431C11.657 4.56292 11.4556 4.02068 11.3006 3.7729C11.2542 3.6954 11.1767 3.61819 11.0992 3.52512C10.7275 3.07595 10.015 2.25481 10.9909 0.938419C11.1459 0.721464 11.4556 0.675081 11.6723 0.830091C11.8892 0.985102 11.9356 1.29482 11.7806 1.51178C11.2695 2.20873 11.4861 2.45651 11.8425 2.87486C11.9353 2.98319 12.0284 3.09181 12.1059 3.2157C12.3073 3.52542 12.8803 4.62516 11.7806 5.87961C11.7031 6.01876 11.5636 6.06515 11.4245 6.06515Z" fill="#4C2F1B"/>
<path d="M15.0179 7.24227C14.9095 7.24227 14.7856 7.19589 14.6926 7.11838C14.4912 6.93255 14.4601 6.62253 14.6459 6.42143C15.2501 5.74004 15.0487 5.19781 14.8937 4.95003C14.8473 4.87252 14.7698 4.79502 14.6923 4.70225C14.3206 4.25308 13.6081 3.43224 14.584 2.11554C14.739 1.89859 15.0487 1.8522 15.2656 2.00722C15.4826 2.16193 15.529 2.47165 15.374 2.6886C14.8629 3.38555 15.0795 3.63363 15.4359 4.05168C15.5287 4.16001 15.6217 4.26864 15.6993 4.39253C15.9006 4.70225 16.4737 5.80199 15.374 7.05644C15.2965 7.18033 15.1573 7.24227 15.0179 7.24227Z" fill="#4C2F1B"/>
<path d="M11.0217 19.6489C10.1697 19.68 9.50386 20.3925 9.28691 21.012C8.94606 21.9878 9.56551 22.5453 10.1077 22.5453C10.4486 22.5453 10.8511 21.9878 10.6964 21.4611C10.433 20.6244 11.7186 19.6178 11.0217 19.6489ZM11.0217 22.6381C11.8736 22.607 12.4775 21.8948 12.6945 21.275C13.0353 20.2992 12.4158 19.7417 11.8269 19.7417C11.61 19.7417 11.1455 20.0203 11.2847 20.8258C11.4397 21.6934 10.3247 22.6692 11.0217 22.6381Z" fill="white"/>
</g>
<defs>
<clipPath id="clip0_50_187">
<rect width="26" height="28" fill="white" transform="translate(0 0.5)"/>
</clipPath>
</defs>
</svg>
